<mxfile host="app.diagrams.net" modified="2023-09-20T17:07:48.874Z" agent="Mozilla/5.0 (Windows NT 10.0; Win64; x64) AppleWebKit/537.36 (KHTML, like Gecko) Chrome/117.0.0.0 Safari/537.36" version="21.7.5" etag="Kg_IDblXF2KH34pytO-a" type="github">
  <diagram name="PÃ¡gina-1" id="ILcRGn_zBe-DicXff9zm">
    <mxGraphModel>
      <root>
        <mxCell id="0" />
        <mxCell id="1" parent="0" />
      </root>
    </mxGraphModel>
  </diagram>
</mxfile>
